<svg xmlns="http://www.w3.org/2000/svg" viewBox="0 0 236.46 40.6"><defs><style>.cls-1{fill:#1d1d1b;}</style></defs><g id="Ebene_2" data-name="Ebene 2"><g id="Ebene_1-2" data-name="Ebene 1"><path class="cls-1" d="M20.3,4.82A15.48,15.48,0,1,0,35.77,20.3,15.5,15.5,0,0,0,20.3,4.82ZM34.73,20.3A14.43,14.43,0,1,1,20.3,5.87,14.46,14.46,0,0,1,34.73,20.3Z"/><path class="cls-1" d="M20.3,0A20.3,20.3,0,1,0,40.6,20.3,20.33,20.33,0,0,0,20.3,0ZM40.08,20.3A19.78,19.78,0,1,1,20.3.52,19.8,19.8,0,0,1,40.08,20.3Z"/><path class="cls-1" d="M20.3,10.24A10.34,10.34,0,1,0,30.63,20.58,10.35,10.35,0,0,0,20.3,10.24Zm8.81,10.34a8.81,8.81,0,1,1-8.81-8.81A8.82,8.82,0,0,1,29.11,20.58Z"/><path class="cls-1" d="M22.37,17.39c-.79,1.59-1.43,3.61.37,4.25,1,.42,2-.79,2.24-3.24A4.31,4.31,0,0,1,22.37,17.39Z"/><path class="cls-1" d="M25.14,17.64a3.46,3.46,0,0,1-2.5-.82,9.9,9.9,0,0,0-.24-2.76,5.83,5.83,0,0,1,1.53-4.75,1.07,1.07,0,0,1,1.68.43,8.51,8.51,0,0,1,.51,5.42C25.59,16.68,25.39,16.77,25.14,17.64Z"/><path class="cls-1" d="M19.17,22.74C20,24.29,20.77,26.27,19,27c-.95.46-2-.69-2.41-3.12A4.34,4.34,0,0,0,19.17,22.74Z"/><path class="cls-1" d="M16.56,23.15a3.48,3.48,0,0,0,2.42-1,9.35,9.35,0,0,1,0-2.77A5.85,5.85,0,0,0,17,14.75a1.07,1.07,0,0,0-1.63.57,8.54,8.54,0,0,0,0,5.45C16,22.24,16.23,22.3,16.56,23.15Z"/><path class="cls-1" d="M69.24,8.67a.61.61,0,0,1-.57.37,1.24,1.24,0,0,1-.73-.4,9.08,9.08,0,0,0-1.21-.89,8.88,8.88,0,0,0-1.9-.9A8.24,8.24,0,0,0,62,6.44a8.34,8.34,0,0,0-2.95.47,6.19,6.19,0,0,0-2.14,1.31,5.57,5.57,0,0,0-1.31,1.91,6,6,0,0,0-.44,2.28A4.66,4.66,0,0,0,55.83,15a6,6,0,0,0,1.75,1.74,11.11,11.11,0,0,0,2.47,1.2c.92.33,1.87.65,2.84,1s1.91.67,2.83,1.05a10.36,10.36,0,0,1,2.47,1.45,6.48,6.48,0,0,1,1.75,2.13,6.81,6.81,0,0,1,.66,3.16,10,10,0,0,1-.66,3.64,8.41,8.41,0,0,1-1.92,3,9.15,9.15,0,0,1-3.08,2,11.12,11.12,0,0,1-4.17.73,11.7,11.7,0,0,1-5.23-1.08A12.2,12.2,0,0,1,51.69,32l.61-1a.78.78,0,0,1,.61-.32.89.89,0,0,1,.5.26l.74.64c.29.25.64.53,1,.83a9,9,0,0,0,1.42.82,9.88,9.88,0,0,0,1.84.64,9.56,9.56,0,0,0,2.37.26,9,9,0,0,0,3.26-.55,7.1,7.1,0,0,0,2.43-1.51A6.41,6.41,0,0,0,68,29.83,7.47,7.47,0,0,0,68.54,27a5,5,0,0,0-.66-2.68,5.76,5.76,0,0,0-1.75-1.76,11.07,11.07,0,0,0-2.47-1.18c-.92-.32-1.87-.63-2.84-.94s-1.91-.64-2.83-1A9.71,9.71,0,0,1,55.52,18a6.54,6.54,0,0,1-1.75-2.2,7.25,7.25,0,0,1-.67-3.28,7.84,7.84,0,0,1,.59-3A7.39,7.39,0,0,1,55.41,7,8.37,8.37,0,0,1,58.2,5.25,10.26,10.26,0,0,1,62,4.59a11.43,11.43,0,0,1,4.29.76,10.42,10.42,0,0,1,3.47,2.32Z"/><path class="cls-1" d="M91.93,8.67a.61.61,0,0,1-.57.37,1.24,1.24,0,0,1-.73-.4,9.79,9.79,0,0,0-1.21-.89,9.12,9.12,0,0,0-1.9-.9,9.72,9.72,0,0,0-5.78.06,6.14,6.14,0,0,0-2.13,1.31,5.57,5.57,0,0,0-1.31,1.91,6,6,0,0,0-.44,2.28A4.66,4.66,0,0,0,78.52,15a6,6,0,0,0,1.75,1.74,11.11,11.11,0,0,0,2.47,1.2c.92.33,1.86.65,2.84,1s1.91.67,2.83,1.05a10.36,10.36,0,0,1,2.47,1.45,6.61,6.61,0,0,1,1.75,2.13,6.81,6.81,0,0,1,.66,3.16,10,10,0,0,1-.66,3.64,8.41,8.41,0,0,1-1.92,3,9.15,9.15,0,0,1-3.08,2,11.12,11.12,0,0,1-4.17.73,11.7,11.7,0,0,1-5.23-1.08A12.09,12.09,0,0,1,74.38,32L75,31a.78.78,0,0,1,.61-.32.89.89,0,0,1,.5.26l.74.64c.29.25.64.53,1,.83a9.35,9.35,0,0,0,1.41.82,10.25,10.25,0,0,0,1.85.64,9.56,9.56,0,0,0,2.37.26,9,9,0,0,0,3.26-.55A7.1,7.1,0,0,0,89.2,32.1a6.41,6.41,0,0,0,1.51-2.27A7.47,7.47,0,0,0,91.23,27a5,5,0,0,0-.66-2.68,5.76,5.76,0,0,0-1.75-1.76,11.07,11.07,0,0,0-2.47-1.18c-.92-.32-1.87-.63-2.84-.94s-1.91-.64-2.83-1A9.54,9.54,0,0,1,78.21,18a6.54,6.54,0,0,1-1.75-2.2,7.25,7.25,0,0,1-.67-3.28,7.84,7.84,0,0,1,.59-3A7.39,7.39,0,0,1,78.1,7a8.37,8.37,0,0,1,2.79-1.76,10.26,10.26,0,0,1,3.8-.66A11.43,11.43,0,0,1,89,5.35a10.42,10.42,0,0,1,3.47,2.32Z"/><path class="cls-1" d="M119.8,4.94V6.83H109V35.66H106.8V6.83H95.94V4.94Z"/><path class="cls-1" d="M127.55,13.71a8.88,8.88,0,0,1,3.38.63,7.57,7.57,0,0,1,2.69,1.83,8.38,8.38,0,0,1,1.78,3,11.68,11.68,0,0,1,.65,4,1.05,1.05,0,0,1-.15.65.54.54,0,0,1-.44.17H119.87v.41a14.9,14.9,0,0,0,.56,4.28A8.87,8.87,0,0,0,122,31.78a6.56,6.56,0,0,0,2.52,1.88,8.3,8.3,0,0,0,3.3.63,9.81,9.81,0,0,0,2.82-.36,9.65,9.65,0,0,0,2-.8,11.7,11.7,0,0,0,1.29-.8,1.46,1.46,0,0,1,.7-.36.49.49,0,0,1,.43.22l.57.69a6,6,0,0,1-1.38,1.22,10.33,10.33,0,0,1-1.91,1,14.13,14.13,0,0,1-2.26.64,12.41,12.41,0,0,1-2.42.24,10.14,10.14,0,0,1-4-.77,8.45,8.45,0,0,1-3.13-2.25,10.21,10.21,0,0,1-2-3.61,15.37,15.37,0,0,1-.71-4.9,13.34,13.34,0,0,1,.66-4.28,9.86,9.86,0,0,1,1.91-3.39,8.71,8.71,0,0,1,3.06-2.23A10.15,10.15,0,0,1,127.55,13.71Zm0,1.54a8,8,0,0,0-3,.52,6.51,6.51,0,0,0-2.29,1.5,7.38,7.38,0,0,0-1.56,2.34,10.72,10.72,0,0,0-.79,3.07h14.22a9.46,9.46,0,0,0-.48-3.12,6.72,6.72,0,0,0-1.34-2.33,5.75,5.75,0,0,0-2.09-1.47A6.81,6.81,0,0,0,127.59,15.25Z"/><path class="cls-1" d="M145.51,23.28V35.66H143.3V4.94h7.92q5.4,0,8.15,2.36a8.44,8.44,0,0,1,2.75,6.76,9.08,9.08,0,0,1-.75,3.71,8.27,8.27,0,0,1-2.16,2.92,9.92,9.92,0,0,1-3.43,1.91,14.1,14.1,0,0,1-4.56.68Zm0-1.78h5.71a10.89,10.89,0,0,0,3.65-.56,8.12,8.12,0,0,0,2.72-1.56A6.87,6.87,0,0,0,159.31,17a7.22,7.22,0,0,0,.6-3,6.84,6.84,0,0,0-2.19-5.45c-1.45-1.28-3.62-1.91-6.5-1.91h-5.71Z"/><path class="cls-1" d="M179.66,19.12h1.83a7,7,0,0,0,.71,0,1.92,1.92,0,0,0,.56-.13,2.05,2.05,0,0,0,.46-.25,3.08,3.08,0,0,0,.46-.39l12.4-12.74a2.32,2.32,0,0,1,.64-.49,1.59,1.59,0,0,1,.73-.14h1.8L185.83,18.72a6.07,6.07,0,0,1-.73.68,2.8,2.8,0,0,1-.7.39,2.56,2.56,0,0,1,.81.4,4.8,4.8,0,0,1,.73.71l14.15,14.76h-1.8a1.48,1.48,0,0,1-.8-.16,3.11,3.11,0,0,1-.5-.43L184,21.79l-.43-.42a2.23,2.23,0,0,0-.44-.29,2,2,0,0,0-.6-.17,5.22,5.22,0,0,0-.87-.06h-2V35.66h-2.21V4.89h2.21Z"/><path class="cls-1" d="M208,6.61a1.66,1.66,0,0,1-.17.73,2,2,0,0,1-.42.59,1.87,1.87,0,0,1-1.35.57,1.8,1.8,0,0,1-.73-.15,2,2,0,0,1-1-1,1.66,1.66,0,0,1-.16-.73,1.78,1.78,0,0,1,.16-.75,1.77,1.77,0,0,1,.41-.62,2,2,0,0,1,.61-.41,1.8,1.8,0,0,1,.73-.15,1.85,1.85,0,0,1,.74.15,2,2,0,0,1,.61.41,1.94,1.94,0,0,1,.42.62A1.79,1.79,0,0,1,208,6.61Zm-.92,7.45v21.6H205V14.06Z"/><path class="cls-1" d="M236.46,4.94V5.7a1.56,1.56,0,0,1-.3.89l-19.5,27.22h19.63v1.85H213.71v-.8a1.26,1.26,0,0,1,.26-.78l19.54-27.3H214.27V4.94Z"/></g></g></svg>