<svg xmlns="http://www.w3.org/2000/svg" xmlns:xlink="http://www.w3.org/1999/xlink" version="1.1" x="0px" y="0px" viewBox="0 0 100 125" style="enable-background:new 0 0 100 100;" xml:space="preserve"><g><g><g><g><g><g><path d="M70.81992,9.59998V7.12c0-2.81995-2.29999-5.12-5.12-5.12H10.26993C7.44993,2,5.14994,4.30005,5.14994,7.12v85.75        c0,2.82996,2.29999,5.13,5.11999,5.13h55.42999c2.82001,0,5.12-2.30005,5.12-5.13V42.09998        c-0.13-0.01001-0.27002-0.02991-0.40002-0.03992c-1.60999,1.72998-3.56,3.22998-5.75,4.40991        c0,16.81006,0,16.42004,0,39.41003h-53.37V10.21997h53.37v0.54004C66.63993,10.16992,68.71995,9.78003,70.81992,9.59998z         M36.03996,89.5c1.06995-1.08008,2.81995-1.08008,3.88995-0.01001c1.07001,1.08008,1.07001,2.82007,0,3.90002        c-1.07001,1.06995-2.82001,1.06995-3.88995-0.01001C34.96995,92.31006,34.96995,90.57007,36.03996,89.5z M41.61991,7.60999        h-7.26996c-0.55005,0-1-0.45007-1-1s0.44995-1,1-1h7.26996c0.54999,0,1,0.45007,1,1S42.1699,7.60999,41.61991,7.60999z"/></g></g></g></g></g><g><path d="M46.78043,17.66235H29.18961c-0.55273,0-1-0.44727-1-1s0.44727-1,1-1h17.59082c0.55273,0,1,0.44727,1,1    S47.33317,17.66235,46.78043,17.66235z"/></g><g><g><g><path d="M50.82993,23.45996c-0.12,0.64001-0.19,1.31006-0.21002,2H50.1699c-0.56,0-1-0.44995-1-1s0.44-1,1-1H50.82993z"/></g></g></g><g><path d="M41.61539,25.46216H18.90836c-0.55273,0-1-0.44727-1-1s0.44727-1,1-1h22.70703c0.55273,0,1,0.44727,1,1    S42.16813,25.46216,41.61539,25.46216z"/></g><g><g><g><path d="M53.11991,33.26001H18.90995c-0.55005,0-1-0.43994-1-1c0-0.55005,0.44995-1,1-1H51.9199      C52.25993,31.93994,52.65995,32.60999,53.11991,33.26001z"/></g></g></g><g><g><g><path d="M60.32993,39.47998c-0.21002,0.54004-0.46002,1.07007-0.75,1.57007c-0.02002,0.01001-0.04999,0.01001-0.07001,0.01001      H35.23991c-0.56,0-1-0.44006-1-1c0-0.55005,0.44-1,1-1h24.27002C59.83994,39.06006,60.13993,39.22998,60.32993,39.47998z"/></g></g></g><g><g><path d="M60.44993,48.17993c-0.13,0.40015-0.5,0.68005-0.94,0.68005h-4.81c-0.54999,0-1-0.44006-1-1c0-0.54993,0.45001-1,1-1     h3.07001c0,0.01001,0.01001,0.01001,0.01001,0.02002c0.56,0.81995,1.48999,1.30994,2.47998,1.30994     C60.31992,48.18994,60.38993,48.18994,60.44993,48.17993z"/></g></g><g><path d="M49.02653,48.86353H35.23649c-0.55273,0-1-0.44727-1-1s0.44727-1,1-1h13.79004c0.55273,0,1,0.44727,1,1    S49.57926,48.86353,49.02653,48.86353z"/></g><g><path d="M59.50993,56.66431H35.23649c-0.55273,0-1-0.44727-1-1s0.44727-1,1-1h24.27344c0.55273,0,1,0.44727,1,1    S60.06266,56.66431,59.50993,56.66431z"/></g><g><path d="M59.50993,64.46509H35.23649c-0.55273,0-1-0.44727-1-1s0.44727-1,1-1h24.27344c0.55273,0,1,0.44727,1,1    S60.06266,64.46509,59.50993,64.46509z"/></g><g><path d="M59.50993,72.26489H42.97965c-0.55273,0-1-0.44727-1-1s0.44727-1,1-1h16.53027c0.55273,0,1,0.44727,1,1    S60.06266,72.26489,59.50993,72.26489z"/></g><g><path d="M38.40348,72.26489h-3.16699c-0.55273,0-1-0.44727-1-1s0.44727-1,1-1h3.16699c0.55273,0,1,0.44727,1,1    S38.95621,72.26489,38.40348,72.26489z"/></g><g><path d="M59.50993,79.98267H35.23649c-0.55273,0-1-0.44727-1-1s0.44727-1,1-1h24.27344c0.55273,0,1,0.44727,1,1    S60.06266,79.98267,59.50993,79.98267z"/></g><g><g><path d="M28.1099,54.29004h-9.20996c-0.54999,0-1,0.43994-1,1v8.54993c0,0.56006,0.45001,1,1,1h9.20996c0.55005,0,1-0.43994,1-1     v-8.54993C29.1099,54.72998,28.65995,54.29004,28.1099,54.29004z M26.34995,58.81006l-2.94,2.92993     c-0.19,0.18994-0.45001,0.29004-0.70001,0.29004c-0.26001,0-0.51001-0.1001-0.71002-0.29004l-1.33997-1.33997     c-0.39001-0.39001-0.40002-1.02002-0.01001-1.41003c0.39001-0.40002,1.02997-0.40002,1.41998-0.01001L22.70994,59.62     l2.22998-2.22998C25.32993,57,25.96995,57,26.3599,57.39001C26.74992,57.78003,26.73991,58.41992,26.34995,58.81006z"/></g><g><path d="M28.1099,38.67993h-9.20996c-0.54999,0-1,0.45007-1,1v8.56006c0,0.56006,0.45001,1,1,1h9.20996c0.55005,0,1-0.43994,1-1     v-8.56006C29.1099,39.13,28.65995,38.67993,28.1099,38.67993z M26.34995,43.20996l-2.94,2.93005     c-0.19,0.19006-0.45001,0.28992-0.70001,0.28992c-0.26001,0-0.51001-0.09985-0.71002-0.28992l-1.33997-1.33997     c-0.39001-0.39014-0.40002-1.02002-0.01001-1.42004c0.39001-0.39001,1.02997-0.39001,1.41998,0l0.64001,0.64001l2.22998-2.22998     c0.39001-0.39001,1.03003-0.39001,1.41998,0C26.74992,42.17993,26.73991,42.82007,26.34995,43.20996z"/></g><g><path d="M28.1099,69.83997h-9.20996c-0.54999,0-1,0.45007-1,1v8.56006c0,0.55994,0.45001,1,1,1h9.20996c0.55005,0,1-0.44006,1-1     v-8.56006C29.1099,70.29004,28.65995,69.83997,28.1099,69.83997z M26.34995,74.37l-2.94,2.93005     c-0.19,0.18994-0.45001,0.28992-0.70001,0.28992c-0.26001,0-0.51001-0.09998-0.71002-0.28992l-1.33997-1.34009     c-0.39001-0.38989-0.40002-1.02002-0.01001-1.40991c0.39001-0.40002,1.02997-0.40002,1.41998-0.01001l0.64001,0.63989     l2.22998-2.22998c0.39001-0.38989,1.03003-0.38989,1.41998,0C26.74992,73.33997,26.73991,73.97998,26.34995,74.37z"/></g></g><g><g><g><path d="M73.77995,11.46997h-0.13c-9.59003,0-20.98999,5.01001-21.04004,14.30005c-0.00995,5.08997,3.87,9.77002,10.20001,12.38      c-0.51001,2.35999-1.60999,4.5-3.28998,6.37c-0.31,0.33997-0.34003,0.84998-0.09003,1.22998      c0.19,0.28003,0.51001,0.43994,0.83002,0.43994c0.12,0,0.22998-0.02002,0.34998-0.06995      c3.64001-1.33997,6.74005-3.46008,9.01001-6.17004c1.32001,0.19006,2.69,0.28003,4.06,0.29004      c10.23999,0,21.15002-5.38,21.17004-14.30005C94.88993,16.89001,83.81992,11.5,73.77995,11.46997z M61.03996,26.84998      c-0.55005,0-1-0.44995-1-1c0-0.54993,0.44995-1,1-1h14.94995c0.56,0,1,0.45007,1,1c0,0.55005-0.44,1-1,1H61.03996z       M81.17991,31.93994H66.27995c-0.55005,0-1-0.44995-1-1c0-0.54993,0.44995-1,1-1h14.89996c0.54999,0,1,0.45007,1,1      C82.17991,31.48999,81.7299,31.93994,81.17991,31.93994z M86.42991,26.84998h-4.77997c-0.54999,0-1-0.44995-1-1      c0-0.54993,0.45001-1,1-1h4.77997c0.54999,0,1,0.45007,1,1C87.42991,26.40002,86.9799,26.84998,86.42991,26.84998z       M86.42991,21.76001H61.03996c-0.55005,0-1-0.44995-1-1s0.44995-1,1-1h25.38995c0.54999,0,1,0.44995,1,1      S86.9799,21.76001,86.42991,21.76001z"/></g></g></g></g><text x="0" y="115" fill="#000000" font-size="5px" font-weight="bold" font-family="'Helvetica Neue', Helvetica, Arial-Unicode, Arial, Sans-serif">Created by Vectors Point</text><text x="0" y="120" fill="#000000" font-size="5px" font-weight="bold" font-family="'Helvetica Neue', Helvetica, Arial-Unicode, Arial, Sans-serif">from the Noun Project</text></svg>