<?xml version="1.0" encoding="UTF-8" standalone="no"?>
<!-- Created with Inkscape (http://www.inkscape.org/) -->

<svg
   xmlns:dc="http://purl.org/dc/elements/1.1/"
   xmlns:cc="http://creativecommons.org/ns#"
   xmlns:rdf="http://www.w3.org/1999/02/22-rdf-syntax-ns#"
   xmlns:svg="http://www.w3.org/2000/svg"
   xmlns="http://www.w3.org/2000/svg"
   xmlns:sodipodi="http://sodipodi.sourceforge.net/DTD/sodipodi-0.dtd"
   xmlns:inkscape="http://www.inkscape.org/namespaces/inkscape"
   version="1.1"
   id="svg2"
   width="85"
   height="100"
   viewBox="0 0 85 100"
   sodipodi:docname="Accesors.svg"
   inkscape:version="0.92.5 (2060ec1f9f, 2020-04-08)">
  <metadata
     id="metadata8">
    <rdf:RDF>
      <cc:Work
         rdf:about="">
        <dc:format>image/svg+xml</dc:format>
        <dc:type
           rdf:resource="http://purl.org/dc/dcmitype/StillImage" />
        <dc:title></dc:title>
      </cc:Work>
    </rdf:RDF>
  </metadata>
  <defs
     id="defs6" />
  <sodipodi:namedview
     pagecolor="#ffffff"
     bordercolor="#666666"
     borderopacity="1"
     objecttolerance="10"
     gridtolerance="10"
     guidetolerance="10"
     inkscape:pageopacity="0"
     inkscape:pageshadow="2"
     inkscape:window-width="1920"
     inkscape:window-height="948"
     id="namedview4"
     showgrid="false"
     inkscape:zoom="5.0568849"
     inkscape:cx="24.35303"
     inkscape:cy="50.877089"
     inkscape:window-x="0"
     inkscape:window-y="27"
     inkscape:window-maximized="1"
     inkscape:current-layer="svg2" />
  <path
     style="fill:#7b7b7b;stroke:none;stroke-width:1px;stroke-linecap:butt;stroke-linejoin:miter;stroke-opacity:1;fill-opacity:1"
     d="m 9.8875101,47.596197 c 0.7910009,0 6.5257569,-0.988751 6.5257569,-0.988751 0.31292,-10.593481 3.707616,-10.092571 6.525756,-11.667262 L -0.12787835,7.7655249 16.611017,7.6506558 32.035533,28.809927 l 3.361753,-1.186501 -0.19775,-8.701009 16.808767,-8.305508 7.316758,8.503259 -0.593251,5.141505 5.537006,0.3955 3.361753,26.696277 1.582002,-0.59325 -0.988751,-9.096509 9.689759,-10.678511 6.921258,13.447013 -10.480761,13.051514 -2.373003,-4.746005 -3.164003,0.791001 -4.152754,3.361753 -0.19775,8.305509 -5.141505,6.130256 H 44.691546 l -4.943755,-5.141505 2.570752,-2.175253 -1.384251,-5.734756 -5.537006,0.791001 -6.130256,33.617535 -12.062762,-3.361754 7.316757,-30.453531 4.350504,0.19775 -0.19775,-3.559503 C 25.87206,56.658972 22.3093,55.528619 17.402018,50.364699 L 10.28301,50.7602 C 5.9057473,52.568808 5.3051859,47.584056 9.8875101,47.596197 Z"
     id="path1171"
     inkscape:connector-curvature="0"
     sodipodi:nodetypes="cccccccccccccccccccccccccccccccccccc" />
</svg>
