<?xml version="1.0" encoding="UTF-8" standalone="no"?>
<!-- Created with Inkscape (http://www.inkscape.org/) -->

<svg
   xmlns:dc="http://purl.org/dc/elements/1.1/"
   xmlns:cc="http://creativecommons.org/ns#"
   xmlns:rdf="http://www.w3.org/1999/02/22-rdf-syntax-ns#"
   xmlns:svg="http://www.w3.org/2000/svg"
   xmlns="http://www.w3.org/2000/svg"
   xmlns:sodipodi="http://sodipodi.sourceforge.net/DTD/sodipodi-0.dtd"
   xmlns:inkscape="http://www.inkscape.org/namespaces/inkscape"
   version="1.1"
   id="svg2"
   width="85"
   height="100"
   viewBox="0 0 85 100"
   sodipodi:docname="all.svg.2021_12_28_21_39_50.0.svg"
   inkscape:version="0.92.5 (2060ec1f9f, 2020-04-08)">
  <metadata
     id="metadata8">
    <rdf:RDF>
      <cc:Work
         rdf:about="">
        <dc:format>image/svg+xml</dc:format>
        <dc:type
           rdf:resource="http://purl.org/dc/dcmitype/StillImage" />
        <dc:title />
      </cc:Work>
    </rdf:RDF>
  </metadata>
  <defs
     id="defs6" />
  <sodipodi:namedview
     pagecolor="#ffffff"
     bordercolor="#666666"
     borderopacity="1"
     objecttolerance="10"
     gridtolerance="10"
     guidetolerance="10"
     inkscape:pageopacity="0"
     inkscape:pageshadow="2"
     inkscape:window-width="1920"
     inkscape:window-height="975"
     id="namedview4"
     showgrid="false"
     inkscape:zoom="1.2642212"
     inkscape:cx="-88.259357"
     inkscape:cy="176.47967"
     inkscape:window-x="0"
     inkscape:window-y="0"
     inkscape:window-maximized="1"
     inkscape:current-layer="svg2"
     showguides="true"
     inkscape:guide-bbox="true">
    <sodipodi:guide
       position="156.05085,-35.237288"
       orientation="0,1"
       id="guide6259"
       inkscape:locked="false" />
  </sodipodi:namedview>
  <path
     style="fill:#7b7b7b;fill-opacity:1;stroke:none;stroke-width:1px;stroke-linecap:butt;stroke-linejoin:miter;stroke-opacity:1"
     d="m -226.3162,-20.748112 c 6.80508,3.962605 13.61017,-0.683303 20.41525,-1.398305 l 0.85886,-3.341878 c 0.20264,6.027348 -9.50838,3.368573 -13.66123,4.556486 l 5.53119,-2.333252 c -0.14825,-2.30186 -4.07298,-7.436087 -6.15255,-11.186441 2.59485,2.912195 4.57072,8.609728 8.11017,7.271187 3.92728,-1.838349 3.53249,-5.597617 2.79661,-9.508475 l -4.39266,4.985917 c 2.81155,-3.873771 4.91677,-7.394379 3.55368,-9.180832 l -1.11864,-8.669491 c 0.2358,-0.125774 -1.64066,-2.363803 -3.45772,-4.542434 1.24579,1.219572 2.49159,3.30834 3.73738,2.584806 1.53584,-0.619308 1.68723,-2.276952 1.11864,-4.474576 -0.96433,-8.524511 0.38122,-12.027904 0.83899,-15.101695 5.81806,-8.357018 9.70439,-8.987076 14.54237,-13.423729 l -1.33045,-5.579167 3.35011,-2.217413 1.46616,4.276826 c -0.16846,-3.503089 -0.93957,-2.627485 -2.64684,-1.514144 -0.0701,1.351604 -1.4807,2.16704 0.83898,4.474576 l 4.75424,-0.559322 c 12.91388,3.876035 15.85365,7.446324 16.58191,11.991495 1.23675,7.718709 2.50427,15.529764 2.7147,20.169522 l 4.19492,4.474577 -1.95763,4.754237 2.79661,5.033898 7.55085,1.398305 1.3983,-4.194915 -1.3983,4.194915 6.99152,-2.237288 c 2.71548,-3.480965 2.33106,-5.633406 1.39831,-7.550847 l -1.95763,1.677966 0.83898,-4.672327 3.35594,2.994361 -0.27966,5.872881 v 0 l 0.83898,-8.389831 1.11864,-1.118644 c -1.62218,8.128887 -1.41364,15.342413 -5.87288,24.889831 -8.12018,3.89586 -11.1842,1.89287 -16.5,2.516949 l 3.35593,1.957627 -5.03389,1.398305 -4.75424,-6.991525 1.67796,9.508474 -5.59322,-8.949152 -2.23728,3.355932 -16.22034,1.957627 -2.52518,-3.104378 c -6.95681,4.916894 -16.74324,10.898048 -29.63584,3.943361 z"
     id="path1107"
     inkscape:connector-curvature="0"
     sodipodi:nodetypes="ccccccccccccccccccccccsccccccccccccccccccccccccccc" />
  <path
     style="fill:#7b7b7b;fill-opacity:1;stroke:none;stroke-width:0.35699999;stroke-linecap:butt;stroke-linejoin:miter;stroke-miterlimit:4;stroke-dasharray:none;stroke-opacity:1;opacity:0.97"
     d="m -212.28114,79.612155 c 0,0 -1.84962,-12.481403 -0.95083,-18.636306 0.60257,-4.126438 4.18365,-11.790288 4.18365,-11.790288 l 29.28561,-2.091839 25.48226,11.21982 17.49532,1.331146 c 3.04265,0.316929 4.94433,0.06347 5.70498,3.803351 v 13.311613 c -0.12676,2.472159 -3.23284,4.563991 -3.23284,4.563991 0,0 -3.84236,1.726196 -5.89515,2.091816 -21.59411,3.846326 -65.79752,0.76067 -65.79752,0.76067 -5.07402,0.466796 -5.65157,-2.064037 -6.27548,-4.563974 z"
     id="path1345"
     inkscape:connector-curvature="0"
     sodipodi:nodetypes="cacccccccacc" />
  <path
     style="fill:#7b7b7b;fill-opacity:1;stroke:none;stroke-width:0.47186351px;stroke-linecap:butt;stroke-linejoin:miter;stroke-opacity:1"
     d="m -79.081494,70.551976 c -0.196472,-1.158606 -1.155863,-5.125546 -1.155863,-5.125546 -6.290147,9.295755 -10.583437,-21.779433 -0.428117,-13.802485 -0.191447,-2.110182 -0.311151,-6.881144 -0.122194,-9.223829 0.918336,-11.385517 7.570145,-20.402246 16.208649,-24.08992 9.031283,-3.855352 20.059381,-4.210736 29.431481,-1.279628 11.727369,3.667715 20.84295,22.342232 18.570157,34.988045 7.6287614,-5.208484 0.41589,21.830788 -4.570613,18.33107 -2.551469,6.395195 -5.595804,11.425091 -9.307568,17.060528 -10.306975,15.648709 -28.485892,20.558769 -42.092122,1.279628 -3.91892,-5.552866 -5.397508,-11.437035 -6.53381,-18.137863 z"
     id="path6905"
     inkscape:connector-curvature="0"
     sodipodi:nodetypes="sccsssccsss" />
  <path
     style="fill:#7b7b7b;fill-opacity:1;stroke:none;stroke-width:0.19577727px;stroke-linecap:butt;stroke-linejoin:miter;stroke-opacity:1"
     d="m 127.54771,18.420684 c -0.3451,-0.575155 -7.78312,3.43623 -11.68028,4.955268 -2.98339,1.16287 -5.68813,2.212208 -7.78685,6.548029 -4.65174,12.075533 -12.9636,22.897763 -15.042771,35.217789 6.901982,7.94886 13.803961,11.566435 20.705941,16.458566 1.75517,-5.218378 3.4171,-5.0218 3.8769,-5.90822 -3.80825,-3.386474 -10.6817,-10.299375 -13.07954,-16.036534 l 13.09606,-22.652647 c 1.29781,15.573695 5.26844,27.405444 3.89343,46.721084 12.15219,4.249255 24.3044,0.993423 36.4566,-0.530914 l -4.42434,-46.367145 11.68027,18.582253 -5.03838,19.040083 c -1.61895,3.11998 0.58312,0.967114 3.66339,6.262916 1.00019,-1.318528 0.7914,-0.623553 3.49868,-5.658908 3.48317,-6.371055 6.46786,-12.742114 7.60987,-19.11317 0.32571,-1.715893 -0.46563,-4.102015 -1.06184,-6.371059 -2.75313,-8.21286 -7.15926,-16.150225 -12.74212,-23.891464 -6.84299,-4.937265 -13.68598,-5.750513 -20.52897,-8.140795 -3.21965,2.498224 -6.52288,4.835729 -13.09605,0.884868 z"
     id="path6987"
     inkscape:connector-curvature="0"
     sodipodi:nodetypes="cscccccccccccccccccc" />
  <g
     id="g7742"
     style="fill:#7b7b7b;fill-opacity:1;stroke:none"
     transform="translate(117.85912,-108.36711)">
    <path
       style="fill:#7b7b7b;fill-opacity:1;stroke:none;stroke-width:1px;stroke-linecap:butt;stroke-linejoin:miter;stroke-opacity:1"
       d="M 2.5169491,26.588984 C 6.9915254,22.254238 6.9915254,22.114407 6.9915254,22.114407 17.091619,40.894899 25.355398,69.390199 33.978813,75.25 L 43.727177,61.371493 52.716101,75.11017 C 64.333714,62.59992 64.459716,41.806134 74.809321,20.576272 l 4.334746,3.915254 C 68.432722,44.462173 68.168977,74.85259 52.995762,80.983051 L 43.437123,94.861554 34.817796,81.682204 C 19.928002,78.158475 15.349849,42.866932 2.5169491,26.588984 Z"
       id="path7788"
       inkscape:connector-curvature="0"
       sodipodi:nodetypes="ccccccccccc" />
  </g>
  <path
     style="fill:#7b7b7b;fill-opacity:1;stroke:#000000;stroke-width:0.28667992px;stroke-linecap:butt;stroke-linejoin:miter;stroke-opacity:1"
     d="M 15.257702,9.2105272 C 9.0702664,47.615968 12.2144,69.691162 13.961975,94.210322 c 7.169699,-1.013098 14.339394,-2.927289 21.509092,0 2.657469,-17.439027 6.744162,-33.163005 6.219497,-54.420601 l 2.332311,0.518292 C 43.40305,57.797818 45.695721,75.773048 49.20579,93.951163 56.89378,92.818777 64.581767,90.644626 72.269757,93.432874 72.399216,65.769016 72.556548,38.119093 68.641716,8.4330922 50.847044,10.959961 33.052375,10.821978 15.257702,9.2105272 Z"
     id="path7023"
     inkscape:connector-curvature="0"
     sodipodi:nodetypes="ccccccccc" />
</svg>
