<?xml version="1.0" encoding="UTF-8" standalone="no"?>
<!-- Created with Inkscape (http://www.inkscape.org/) -->

<svg
   width="67.712433mm"
   height="102.89214mm"
   viewBox="0 0 67.712433 102.89214"
   version="1.1"
   id="svg5"
   sodipodi:docname="outfit-icon_v2.svg"
   inkscape:version="1.1.1 (3bf5ae0d25, 2021-09-20)"
   xmlns:inkscape="http://www.inkscape.org/namespaces/inkscape"
   xmlns:sodipodi="http://sodipodi.sourceforge.net/DTD/sodipodi-0.dtd"
   xmlns="http://www.w3.org/2000/svg"
   xmlns:svg="http://www.w3.org/2000/svg">
  <sodipodi:namedview
     id="namedview7"
     pagecolor="#ffffff"
     bordercolor="#666666"
     borderopacity="1.0"
     inkscape:pageshadow="2"
     inkscape:pageopacity="0.0"
     inkscape:pagecheckerboard="0"
     inkscape:document-units="mm"
     showgrid="false"
     inkscape:zoom="0.71446409"
     inkscape:cx="395.40126"
     inkscape:cy="130.86732"
     inkscape:window-width="1920"
     inkscape:window-height="991"
     inkscape:window-x="-9"
     inkscape:window-y="-9"
     inkscape:window-maximized="1"
     inkscape:current-layer="svg5"
     fit-margin-top="0"
     fit-margin-left="0"
     fit-margin-right="0"
     fit-margin-bottom="0" />
  <defs
     id="defs2" />
  <path
     id="path31846"
     style="fill:#7b7b7b;stroke-width:0.161638px"
     d="M 39.304267,0 C 36.646059,2.0626013 33.919128,3.9924077 28.492129,0.73048491 28.20723,0.25561101 22.065049,3.5673408 18.847474,4.821521 16.384295,5.7815968 14.152587,6.6486226 12.419851,10.228398 8.5792356,20.198243 1.7166032,29.132522 0,39.304263 5.6984505,45.867058 11.396179,48.854167 17.094631,52.893218 18.543743,48.584809 19.915899,48.7471 20.295538,48.015249 17.151352,45.219279 11.476021,39.511371 9.4963005,34.77461 L 20.310052,16.072274 c 1.071505,12.858027 4.349038,22.626294 3.213812,38.573778 0.02584,0.0091 0.05157,0.01681 0.07741,0.0259 -0.09241,-0.0081 -0.184952,-0.01587 -0.27736,-0.02403 v 0.0016 c -3.511837,21.797992 -1.7272,34.326159 -0.735318,48.242618 4.06934,-0.575 8.13926,-1.66143 12.208598,0 1.508318,-9.897943 3.827648,-18.821449 3.529876,-30.886759 l 1.323902,0.293479 c -0.351805,9.926788 0.949047,20.129102 2.941292,30.44655 4.363499,-0.6427 8.727165,-1.87592 13.090671,-0.29348 0.07359,-15.701324 0.162789,-31.395227 -2.059226,-48.244253 -0.624761,0.08871 -1.249031,0.171028 -1.873783,0.248329 0.624891,-0.08762 1.248892,-0.169949 1.873783,-0.248329 L 49.97127,15.92553 59.614313,31.268932 55.453938,46.988055 c -1.336629,2.57595 0.481986,0.799106 3.02514,5.171443 0.825774,-1.088601 0.652879,-0.51585 2.888078,-4.673159 C 64.24295,42.226213 66.706797,36.96605 67.649641,31.705936 67.918638,30.289272 67.266262,28.319174 66.774034,26.445801 64.500952,19.665042 60.863144,13.112487 56.253769,6.7211033 50.604025,2.6447683 44.95401,1.9734808 39.304267,0 Z" />
</svg>
