<?xml version="1.0" encoding="UTF-8" standalone="no"?>
<!-- Created with Inkscape (http://www.inkscape.org/) -->

<svg
   xmlns:dc="http://purl.org/dc/elements/1.1/"
   xmlns:cc="http://creativecommons.org/ns#"
   xmlns:rdf="http://www.w3.org/1999/02/22-rdf-syntax-ns#"
   xmlns:svg="http://www.w3.org/2000/svg"
   xmlns="http://www.w3.org/2000/svg"
   xmlns:sodipodi="http://sodipodi.sourceforge.net/DTD/sodipodi-0.dtd"
   xmlns:inkscape="http://www.inkscape.org/namespaces/inkscape"
   version="1.1"
   id="svg2"
   width="85"
   height="100"
   viewBox="0 0 85 100"
   sodipodi:docname="Sticker.svg"
   inkscape:version="0.92.5 (2060ec1f9f, 2020-04-08)">
  <metadata
     id="metadata8">
    <rdf:RDF>
      <cc:Work
         rdf:about="">
        <dc:format>image/svg+xml</dc:format>
        <dc:type
           rdf:resource="http://purl.org/dc/dcmitype/StillImage" />
        <dc:title></dc:title>
      </cc:Work>
    </rdf:RDF>
  </metadata>
  <defs
     id="defs6" />
  <sodipodi:namedview
     pagecolor="#ffffff"
     bordercolor="#666666"
     borderopacity="1"
     objecttolerance="10"
     gridtolerance="10"
     guidetolerance="10"
     inkscape:pageopacity="0"
     inkscape:pageshadow="2"
     inkscape:window-width="1920"
     inkscape:window-height="948"
     id="namedview4"
     showgrid="false"
     inkscape:zoom="3.5757576"
     inkscape:cx="-16.575928"
     inkscape:cy="69.952764"
     inkscape:window-x="0"
     inkscape:window-y="27"
     inkscape:window-maximized="1"
     inkscape:current-layer="svg2" />
  <path
     style="fill:#7b7b7b;fill-opacity:1;stroke:none;stroke-width:1px;stroke-linecap:butt;stroke-linejoin:miter;stroke-opacity:1"
     d="M 1.6779661,48.262712 8.1101695,46.864407 C 13.754625,10.860012 55.822711,16.703546 59.847458,42.389831 l 7.550847,0.838983 C 70.443047,35.545335 75.46257,30.330332 84.457627,30.084746 74.660234,41.435984 59.018403,51.240165 73.271186,68.957627 c -4.228448,-2.360023 -7.97279,1.089232 -12.864406,-9.228813 -4.121233,3.685432 -5.918805,9.362574 -14.822034,8.949152 -2.093353,4.645354 3.242062,5.045699 5.872881,6.991526 l -16.5,4.754237 -6.432203,-8.38983 C 23.570895,70.926863 19.895588,73.913338 11.466102,61.686441 H 2.5169492 C -0.98380137,53.453927 0.96335188,51.577301 1.6779661,48.262712 Z"
     id="path944"
     inkscape:connector-curvature="0"
     sodipodi:nodetypes="cccccccccccccc" />
</svg>
